<?xml version="1.0" encoding="UTF-8" standalone="no"?>
<!DOCTYPE svg PUBLIC "-//W3C//DTD SVG 1.1//EN"
 "http://www.w3.org/Graphics/SVG/1.1/DTD/svg11.dtd">
<!-- Generated by graphviz version 2.38.0 (20140413.2041)
 -->
<!-- Title: Tree Pages: 1 -->
<svg width="631pt" height="552pt"
 viewBox="0.00 0.00 631.00 552.00" xmlns="http://www.w3.org/2000/svg" xmlns:xlink="http://www.w3.org/1999/xlink">
<g id="graph0" class="graph" transform="scale(1 1) rotate(0) translate(4 548)">
<title>Tree</title>
<polygon fill="white" stroke="none" points="-4,4 -4,-548 627,-548 627,4 -4,4"/>
<!-- 0 -->
<g id="node1" class="node"><title>0</title>
<polygon fill="#f6bcea" stroke="black" points="476.5,-544 309.5,-544 309.5,-461 476.5,-461 476.5,-544"/>
<text text-anchor="start" x="370" y="-528.8" font-family="Times New Roman,serif" font-size="14.00">node #0</text>
<text text-anchor="start" x="340.5" y="-513.8" font-family="Times New Roman,serif" font-size="14.00">Na_to_K ≤ 14.615</text>
<text text-anchor="start" x="352" y="-498.8" font-family="Times New Roman,serif" font-size="14.00">samples = 140</text>
<text text-anchor="start" x="317.5" y="-483.8" font-family="Times New Roman,serif" font-size="14.00">value = [16, 11, 11, 33, 69]</text>
<text text-anchor="start" x="353.5" y="-468.8" font-family="Times New Roman,serif" font-size="14.00">class = drugB</text>
</g>
<!-- 1 -->
<g id="node2" class="node"><title>1</title>
<polygon fill="#c3c2f7" stroke="black" points="389.5,-425 228.5,-425 228.5,-342 389.5,-342 389.5,-425"/>
<text text-anchor="start" x="286" y="-409.8" font-family="Times New Roman,serif" font-size="14.00">node #1</text>
<text text-anchor="start" x="284" y="-394.8" font-family="Times New Roman,serif" font-size="14.00">BP ≤ 0.5</text>
<text text-anchor="start" x="271.5" y="-379.8" font-family="Times New Roman,serif" font-size="14.00">samples = 71</text>
<text text-anchor="start" x="236.5" y="-364.8" font-family="Times New Roman,serif" font-size="14.00">value = [16, 11, 11, 33, 0]</text>
<text text-anchor="start" x="269.5" y="-349.8" font-family="Times New Roman,serif" font-size="14.00">class = drugA</text>
</g>
<!-- 0&#45;&gt;1 -->
<g id="edge1" class="edge"><title>0&#45;&gt;1</title>
<path fill="none" stroke="black" d="M363.857,-460.907C357.471,-452.014 350.648,-442.509 344.058,-433.331"/>
<polygon fill="black" stroke="black" points="346.767,-431.103 338.092,-425.021 341.081,-435.185 346.767,-431.103"/>
<text text-anchor="middle" x="334.042" y="-445.991" font-family="Times New Roman,serif" font-size="14.00">True</text>
</g>
<!-- 10 -->
<g id="node11" class="node"><title>10</title>
<polygon fill="#e539c0" stroke="black" points="548,-417.5 408,-417.5 408,-349.5 548,-349.5 548,-417.5"/>
<text text-anchor="start" x="451.5" y="-402.3" font-family="Times New Roman,serif" font-size="14.00">node #10</text>
<text text-anchor="start" x="440.5" y="-387.3" font-family="Times New Roman,serif" font-size="14.00">samples = 69</text>
<text text-anchor="start" x="416" y="-372.3" font-family="Times New Roman,serif" font-size="14.00">value = [0, 0, 0, 0, 69]</text>
<text text-anchor="start" x="438.5" y="-357.3" font-family="Times New Roman,serif" font-size="14.00">class = drugB</text>
</g>
<!-- 0&#45;&gt;10 -->
<g id="edge10" class="edge"><title>0&#45;&gt;10</title>
<path fill="none" stroke="black" d="M422.49,-460.907C430.747,-449.542 439.729,-437.178 448.015,-425.774"/>
<polygon fill="black" stroke="black" points="450.858,-427.814 453.904,-417.667 445.195,-423.7 450.858,-427.814"/>
<text text-anchor="middle" x="457.816" y="-438.659" font-family="Times New Roman,serif" font-size="14.00">False</text>
</g>
<!-- 2 -->
<g id="node3" class="node"><title>2</title>
<polygon fill="#f7d8c1" stroke="black" points="300.5,-306 153.5,-306 153.5,-223 300.5,-223 300.5,-306"/>
<text text-anchor="start" x="204" y="-290.8" font-family="Times New Roman,serif" font-size="14.00">node #2</text>
<text text-anchor="start" x="196" y="-275.8" font-family="Times New Roman,serif" font-size="14.00">Age ≤ 50.5</text>
<text text-anchor="start" x="189.5" y="-260.8" font-family="Times New Roman,serif" font-size="14.00">samples = 27</text>
<text text-anchor="start" x="161.5" y="-245.8" font-family="Times New Roman,serif" font-size="14.00">value = [16, 11, 0, 0, 0]</text>
<text text-anchor="start" x="187.5" y="-230.8" font-family="Times New Roman,serif" font-size="14.00">class = drugY</text>
</g>
<!-- 1&#45;&gt;2 -->
<g id="edge2" class="edge"><title>1&#45;&gt;2</title>
<path fill="none" stroke="black" d="M280.551,-341.907C274.317,-333.014 267.656,-323.509 261.223,-314.331"/>
<polygon fill="black" stroke="black" points="264.005,-312.201 255.399,-306.021 258.272,-316.219 264.005,-312.201"/>
</g>
<!-- 5 -->
<g id="node6" class="node"><title>5</title>
<polygon fill="#7d7bee" stroke="black" points="465.5,-306 318.5,-306 318.5,-223 465.5,-223 465.5,-306"/>
<text text-anchor="start" x="369" y="-290.8" font-family="Times New Roman,serif" font-size="14.00">node #5</text>
<text text-anchor="start" x="343.5" y="-275.8" font-family="Times New Roman,serif" font-size="14.00">Cholesterol ≤ 0.5</text>
<text text-anchor="start" x="354.5" y="-260.8" font-family="Times New Roman,serif" font-size="14.00">samples = 44</text>
<text text-anchor="start" x="326.5" y="-245.8" font-family="Times New Roman,serif" font-size="14.00">value = [0, 0, 11, 33, 0]</text>
<text text-anchor="start" x="352.5" y="-230.8" font-family="Times New Roman,serif" font-size="14.00">class = drugA</text>
</g>
<!-- 1&#45;&gt;5 -->
<g id="edge5" class="edge"><title>1&#45;&gt;5</title>
<path fill="none" stroke="black" d="M337.796,-341.907C344.106,-333.014 350.848,-323.509 357.359,-314.331"/>
<polygon fill="black" stroke="black" points="360.323,-316.202 363.254,-306.021 354.614,-312.152 360.323,-316.202"/>
</g>
<!-- 3 -->
<g id="node4" class="node"><title>3</title>
<polygon fill="#e58139" stroke="black" points="140,-179.5 0,-179.5 0,-111.5 140,-111.5 140,-179.5"/>
<text text-anchor="start" x="47" y="-164.3" font-family="Times New Roman,serif" font-size="14.00">node #3</text>
<text text-anchor="start" x="32.5" y="-149.3" font-family="Times New Roman,serif" font-size="14.00">samples = 16</text>
<text text-anchor="start" x="8" y="-134.3" font-family="Times New Roman,serif" font-size="14.00">value = [16, 0, 0, 0, 0]</text>
<text text-anchor="start" x="30.5" y="-119.3" font-family="Times New Roman,serif" font-size="14.00">class = drugY</text>
</g>
<!-- 2&#45;&gt;3 -->
<g id="edge3" class="edge"><title>2&#45;&gt;3</title>
<path fill="none" stroke="black" d="M172.53,-222.907C156.39,-210.88 138.751,-197.735 122.724,-185.791"/>
<polygon fill="black" stroke="black" points="124.616,-182.836 114.506,-179.667 120.433,-188.449 124.616,-182.836"/>
</g>
<!-- 4 -->
<g id="node5" class="node"><title>4</title>
<polygon fill="#7be539" stroke="black" points="298,-179.5 158,-179.5 158,-111.5 298,-111.5 298,-179.5"/>
<text text-anchor="start" x="205" y="-164.3" font-family="Times New Roman,serif" font-size="14.00">node #4</text>
<text text-anchor="start" x="190.5" y="-149.3" font-family="Times New Roman,serif" font-size="14.00">samples = 11</text>
<text text-anchor="start" x="166" y="-134.3" font-family="Times New Roman,serif" font-size="14.00">value = [0, 11, 0, 0, 0]</text>
<text text-anchor="start" x="188.5" y="-119.3" font-family="Times New Roman,serif" font-size="14.00">class = drugC</text>
</g>
<!-- 2&#45;&gt;4 -->
<g id="edge4" class="edge"><title>2&#45;&gt;4</title>
<path fill="none" stroke="black" d="M227.347,-222.907C227.438,-212.204 227.537,-200.615 227.63,-189.776"/>
<polygon fill="black" stroke="black" points="231.131,-189.697 227.717,-179.667 224.131,-189.637 231.131,-189.697"/>
</g>
<!-- 6 -->
<g id="node7" class="node"><title>6</title>
<polygon fill="#edfdfa" stroke="black" points="464.5,-187 317.5,-187 317.5,-104 464.5,-104 464.5,-187"/>
<text text-anchor="start" x="368" y="-171.8" font-family="Times New Roman,serif" font-size="14.00">node #6</text>
<text text-anchor="start" x="366" y="-156.8" font-family="Times New Roman,serif" font-size="14.00">BP ≤ 1.5</text>
<text text-anchor="start" x="353.5" y="-141.8" font-family="Times New Roman,serif" font-size="14.00">samples = 21</text>
<text text-anchor="start" x="325.5" y="-126.8" font-family="Times New Roman,serif" font-size="14.00">value = [0, 0, 11, 10, 0]</text>
<text text-anchor="start" x="351.5" y="-111.8" font-family="Times New Roman,serif" font-size="14.00">class = drugX</text>
</g>
<!-- 5&#45;&gt;6 -->
<g id="edge6" class="edge"><title>5&#45;&gt;6</title>
<path fill="none" stroke="black" d="M391.653,-222.907C391.582,-214.649 391.507,-205.864 391.434,-197.302"/>
<polygon fill="black" stroke="black" points="394.932,-196.99 391.346,-187.021 387.932,-197.05 394.932,-196.99"/>
</g>
<!-- 9 -->
<g id="node10" class="node"><title>9</title>
<polygon fill="#3c39e5" stroke="black" points="623,-179.5 483,-179.5 483,-111.5 623,-111.5 623,-179.5"/>
<text text-anchor="start" x="530" y="-164.3" font-family="Times New Roman,serif" font-size="14.00">node #9</text>
<text text-anchor="start" x="515.5" y="-149.3" font-family="Times New Roman,serif" font-size="14.00">samples = 23</text>
<text text-anchor="start" x="491" y="-134.3" font-family="Times New Roman,serif" font-size="14.00">value = [0, 0, 0, 23, 0]</text>
<text text-anchor="start" x="513.5" y="-119.3" font-family="Times New Roman,serif" font-size="14.00">class = drugA</text>
</g>
<!-- 5&#45;&gt;9 -->
<g id="edge9" class="edge"><title>5&#45;&gt;9</title>
<path fill="none" stroke="black" d="M447.858,-222.907C464.409,-210.88 482.498,-197.735 498.933,-185.791"/>
<polygon fill="black" stroke="black" points="501.328,-188.377 507.36,-179.667 497.213,-182.714 501.328,-188.377"/>
</g>
<!-- 7 -->
<g id="node8" class="node"><title>7</title>
<polygon fill="#39e5c5" stroke="black" points="382,-68 242,-68 242,-0 382,-0 382,-68"/>
<text text-anchor="start" x="289" y="-52.8" font-family="Times New Roman,serif" font-size="14.00">node #7</text>
<text text-anchor="start" x="274.5" y="-37.8" font-family="Times New Roman,serif" font-size="14.00">samples = 11</text>
<text text-anchor="start" x="250" y="-22.8" font-family="Times New Roman,serif" font-size="14.00">value = [0, 0, 11, 0, 0]</text>
<text text-anchor="start" x="272.5" y="-7.8" font-family="Times New Roman,serif" font-size="14.00">class = drugX</text>
</g>
<!-- 6&#45;&gt;7 -->
<g id="edge7" class="edge"><title>6&#45;&gt;7</title>
<path fill="none" stroke="black" d="M361.583,-103.726C355.2,-94.879 348.441,-85.51 342.035,-76.6303"/>
<polygon fill="black" stroke="black" points="344.714,-74.3615 336.024,-68.2996 339.037,-78.4571 344.714,-74.3615"/>
</g>
<!-- 8 -->
<g id="node9" class="node"><title>8</title>
<polygon fill="#3c39e5" stroke="black" points="540,-68 400,-68 400,-0 540,-0 540,-68"/>
<text text-anchor="start" x="447" y="-52.8" font-family="Times New Roman,serif" font-size="14.00">node #8</text>
<text text-anchor="start" x="432.5" y="-37.8" font-family="Times New Roman,serif" font-size="14.00">samples = 10</text>
<text text-anchor="start" x="408" y="-22.8" font-family="Times New Roman,serif" font-size="14.00">value = [0, 0, 0, 10, 0]</text>
<text text-anchor="start" x="430.5" y="-7.8" font-family="Times New Roman,serif" font-size="14.00">class = drugA</text>
</g>
<!-- 6&#45;&gt;8 -->
<g id="edge8" class="edge"><title>6&#45;&gt;8</title>
<path fill="none" stroke="black" d="M420.417,-103.726C426.8,-94.879 433.559,-85.51 439.965,-76.6303"/>
<polygon fill="black" stroke="black" points="442.963,-78.4571 445.976,-68.2996 437.286,-74.3615 442.963,-78.4571"/>
</g>
</g>
</svg>
